Robin Hood 2010 TS.Mkv.FEEL-FREE

FEEL-FREE TEAM


..............................................
Plot:
The story of an archer in the army of Richard Coeur de Lion who fights against the Norman invaders and becomes the legendary hero known as Robin Hood.
................................................

...................................................
GENRE:Action | Drama
Source Audio:Prism.Thanks.
Source video:TS ELEKTI4KA.Thanks.
Audio Language.: English
Encoder: Tony2
iMDB URL:http://www.imdb.com/title/tt0955308/
Subtitles: ROMANA
................................................
General
Complete name : Robin Hood 2010 TS.Mkv.FEEL-FREE.mkv
Format : Matroska
File size : 1.30 GiB
Duration : 2h 11mn
Overall bit rate : 1 416 Kbps
....................................................
Video
ID : 1
Format : MPEG-4 Visual
Format profile : AdvancedSimple@L5
Format settings, BVOP : Yes
Format settings, QPel : No
Format settings, GMC : No warppoints
Format settings, Matrix : Custom
Codec ID : XVID
Codec ID/Hint : XviD
Duration : 2h 11mn
Bit rate : 1 260 Kbps
Width : 720 pixels
Height : 336 pixels
Display aspect ratio : 2.2:1
Frame rate : 23.976 fps
Resolution : 24 bits
Colorimetry : 4:2:0
Scan type : Progressive
Bits/(Pixel*Frame) : 0.217
Stream size : 1.16 GiB (89%)
Writing library : XviD 1.2.1 (UTC 2008-12-04)
.................................................
Audio
ID : 2
Format : AC-3
Format/Info : Audio Coding 3
Codec ID : A_AC3
Duration : 2h 11mn
Bit rate mode : Constant
Bit rate : 128 Kbps
Channel(s) : 2 channels
Channel positions : L R
Sampling rate : 44.1 KHz
Stream size : 120 MiB (9%)


.. 
http://img686.imageshack.us/img686/1116/uxxkx.jpg 
http://img39.imageshack.us/img39/2789/ibe1w3.png 
http://img340.imageshack.us/img340/1173/jrxmx2.png 
http://img249.imageshack.us/img249/6379/1zfo40x.png 
http://img411.imageshack.us/img411/3848/2vkkavk.png
..............................................
